<svg xmlns="http://www.w3.org/2000/svg" xmlns:xlink="http://www.w3.org/1999/xlink" viewBox="0 0 152.69 30.01"><defs><style>.cls-1{fill:url(#linear-gradient);}.cls-2{fill:#65687a;}</style><linearGradient id="linear-gradient" x1="1.94" y1="28.09" x2="28.13" y2="1.9" gradientUnits="userSpaceOnUse"><stop offset="0" stop-color="#00ade8"/><stop offset="1" stop-color="#69fabc"/></linearGradient></defs><g id="Layer_2" data-name="Layer 2"><g id="Layer_1-2" data-name="Layer 1"><path class="cls-1" d="M23.55,0a6.48,6.48,0,0,0-6.48,6.46v7.16c-.67,0-1.35.07-2.06.07s-1.38,0-2,.07V6.46a6.48,6.48,0,0,0-13,0V23.57a6.48,6.48,0,0,0,13,0V16.41c.66-.05,1.35-.07,2-.07s1.39,0,2.06-.07v7.3a6.48,6.48,0,0,0,13,0V6.46A6.48,6.48,0,0,0,23.55,0ZM6.48,2.65A3.81,3.81,0,0,1,10.3,6.46V14A21.47,21.47,0,0,0,4.8,15.6a9.83,9.83,0,0,0-2.14,1.27V6.46A3.82,3.82,0,0,1,6.48,2.65ZM10.3,23.57a3.83,3.83,0,0,1-7.65,0V21.85c0-1.51,1.21-3,3.22-3.84a18.61,18.61,0,0,1,4.43-1.3Zm13.25,3.81a3.81,3.81,0,0,1-3.82-3.81V16a22,22,0,0,0,5.5-1.56,10.07,10.07,0,0,0,2.14-1.27V23.57a3.83,3.83,0,0,1-3.82,3.81ZM24.16,12a19.09,19.09,0,0,1-4.43,1.3V6.46a3.82,3.82,0,0,1,7.64,0V8.17C27.37,9.68,26.17,11.12,24.16,12Z"/><path class="cls-2" d="M116.62,10.38a7.32,7.32,0,1,0,7.32,7.31h0a7.31,7.31,0,0,0-7.31-7.31Zm4.94,7.31a4.94,4.94,0,1,1-4.94-5,4.95,4.95,0,0,1,4.94,5Z"/><path class="cls-2" d="M72.64,10.43a1.18,1.18,0,0,0-1.18,1.18h0v.7a7.32,7.32,0,1,0,0,10.76v.69a1.19,1.19,0,1,0,2.37.08V11.61A1.18,1.18,0,0,0,72.64,10.43Zm-1.18,7.26a4.94,4.94,0,0,1-4.94,4.94h0a4.95,4.95,0,1,1,4.94-4.95Z"/><path class="cls-2" d="M85.38,11.56a1.18,1.18,0,0,1-1.18,1.19H84a4.94,4.94,0,0,0-4.94,4.93h0c-.06.25,0,4,0,6.23a1.18,1.18,0,0,1-1.32,1h0a1.22,1.22,0,0,1-1-1.23V11.61a1.18,1.18,0,0,1,1.18-1.18H78a1.23,1.23,0,0,1,1.12,1.25v.63A7.29,7.29,0,0,1,84,10.37h.15a1.19,1.19,0,0,1,1.19,1.19Z"/><path class="cls-2" d="M138,16.51v7.26A1.18,1.18,0,0,1,136.86,25h0a1.18,1.18,0,0,1-1.19-1.18V22.58h0V16.51a3.71,3.71,0,0,0-3.71-3.7h-.25a3.79,3.79,0,0,0-3.44,3.82v1.45h0v4.5h0v1.18a1.19,1.19,0,1,1-2.38,0V11.62a1.2,1.2,0,0,1,1.19-1.18,1.18,1.18,0,0,1,1.19,1.18v.11a5.88,5.88,0,0,1,3.4-1.29A6.08,6.08,0,0,1,138,16.2Z"/><path class="cls-2" d="M56.92,6.16V23.87a1.17,1.17,0,1,1-2.34,0v-8H42.37v8a1.17,1.17,0,1,1-2.33,0V6.16a1.17,1.17,0,1,1,2.33,0h0v7.69h12.2V6.16a1.17,1.17,0,1,1,2.33,0h0Z"/><path class="cls-2" d="M107.54,17.07h0v6.69a1.18,1.18,0,0,1-1.19,1.18h0a1.18,1.18,0,0,1-1.18-1.18h0v-6.1h0v-1.6a3.31,3.31,0,1,0-6.62-.15v.15h0v7.7A1.2,1.2,0,0,1,97.41,25a1.19,1.19,0,0,1-1.23-1.14V17.66h0v-1.6h0a3.31,3.31,0,1,0-6.62-.15h0v7.85A1.18,1.18,0,0,1,88.42,25a1.2,1.2,0,0,1-1.23-1.14V11.62a1.19,1.19,0,0,1,2.36-.17,5.66,5.66,0,0,1,7.81,1.15,5.67,5.67,0,0,1,10.18,3.46Z"/><path class="cls-2" d="M152.51,12.14l-8,17.29a1.21,1.21,0,0,1-2.18-1l2.15-4.66-5.38-11.63a1.2,1.2,0,0,1,2.06-1.25v0a1,1,0,0,1,.11.23l4.52,9.78,4.53-9.78a1.2,1.2,0,0,1,1.52-.77,1.21,1.21,0,0,1,.77,1.53,2.56,2.56,0,0,1-.11.24Z"/></g></g></svg>